<svg width="1728" height="324" viewBox="0 0 1728 324" fill="none" xmlns="http://www.w3.org/2000/svg">
<rect x="175.5" y="67.5" width="270" height="27" fill="black"/>
<rect x="67.5" y="229.5" width="378" height="27" fill="black"/>
<rect x="418.5" y="67.5" width="27" height="189" fill="black"/>
<rect x="67.5" y="148.5" width="27" height="108" fill="black"/>
<rect x="526.5" y="148.5" width="297" height="27" fill="black"/>
<rect x="472.5" y="229.5" width="378" height="27" fill="black"/>
<rect x="472.5" y="67.5006" width="378" height="27" fill="black"/>
<rect x="472.5" y="67.5" width="27" height="189" fill="black"/>
<rect x="931.5" y="148.5" width="243" height="27" fill="black"/>
<rect x="1228.5" y="229.5" width="27" height="27" fill="black"/>
<rect x="877.5" y="67.5" width="378" height="27" fill="black"/>
<rect x="877.5" y="67.5" width="27" height="189" fill="black"/>
<rect x="1336.5" y="148.5" width="243" height="27" fill="black"/>
<rect x="1282.5" y="67.5001" width="378" height="27" fill="black"/>
<rect x="1282.5" y="67.5001" width="27" height="189" fill="black"/>
<path fill-rule="evenodd" clip-rule="evenodd" d="M1728 0H0V324H1728V0ZM1701 27H27V297H1701V27Z" fill="black"/>
</svg>
