<svg width="115" height="42" viewBox="0 0 115 42" fill="none" xmlns="http://www.w3.org/2000/svg">
<path fill-rule="evenodd" clip-rule="evenodd" d="M115 0.797302H0V41.2027H115V0.797302ZM111.892 3.90539H3.10811V38.0946H111.892V3.90539Z" fill="black"/>
<path fill-rule="evenodd" clip-rule="evenodd" d="M59.0541 10.1216V34.9865H62.1622V10.1216H108.784V7.01352H62.1622H59.0541V10.1216ZM99.4595 19.4459H65.2703V22.5541H99.4595V19.4459ZM21.7568 7.01354H52.8378H55.9459V10.1216L55.9459 31.8784V34.9865H52.8378H49.7297H46.6216H43.5135H40.4054H37.2973H34.1892H31.0811H27.973H24.8649H21.7568H18.6486H15.5405H12.4324H9.32432L9.32432 34.9865L9.3243 34.9865L6.21622 34.9865V31.8784V22.5541H9.3243V31.8784H9.32432L52.8378 31.8784V10.1216H21.7568V7.01354Z" fill="black"/>
</svg>
