<svg width="24" height="16" viewBox="0 0 24 16" fill="none" xmlns="http://www.w3.org/2000/svg">
<path fill-rule="evenodd" clip-rule="evenodd" d="M0 1C0 0.447715 0.335786 0 0.75 0L23.25 0C23.6642 0 24 0.447715 24 1C24 1.55228 23.6642 2 23.25 2L0.75 2C0.335786 2 0 1.55228 0 1Z" fill="black"/>
<path fill-rule="evenodd" clip-rule="evenodd" d="M0 8C0 7.44772 0.335786 7 0.75 7H23.25C23.6642 7 24 7.44772 24 8C24 8.55228 23.6642 9 23.25 9H0.75C0.335786 9 0 8.55228 0 8Z" fill="black"/>
<path fill-rule="evenodd" clip-rule="evenodd" d="M0 15C0 14.4477 0.335786 14 0.75 14H23.25C23.6642 14 24 14.4477 24 15C24 15.5523 23.6642 16 23.25 16H0.75C0.335786 16 0 15.5523 0 15Z" fill="black"/>
</svg>
